# xmcd CD database file
#
# Track frame offsets:
#	183
#	14360
#	27983
#	44545
#	61353
#	73863
#	84268
#	99468
#	114448
#	129003
#
# Disc length: 2005 seconds
#
# Revision: 2
# Processed by: cddbd v1.5.1PL2 Copyright (c) Steve Scherf et al.
# Submitted via: CDex 1.51
#
DISCID=7b07d30a
DTITLE=Sawyer Brown - Buick
DYEAR=1991
DGENRE=Country
TTITLE0=Mama's Little Baby Loves Me
TTITLE1=My Baby Drives A Buick
TTITLE2=When You Run From Love
TTITLE3=The Walk
TTITLE4=48 Hours Till Monday
TTITLE5=Superman's Daughter
TTITLE6=One Less Pony
TTITLE7=Still Water
TTITLE8=Stealin' Home
TTITLE9=Thunder Bay
EXTD=YEAR: 1991
EXTT0=
EXTT1=
EXTT2=
EXTT3=
EXTT4=
EXTT5=
EXTT6=
EXTT7=
EXTT8=
EXTT9=
PLAYORDER=
